<?xml version="1.0" encoding="utf-8"?>
<!-- Generator: Adobe Illustrator 17.1.0, SVG Export Plug-In . SVG Version: 6.00 Build 0)  -->
<!DOCTYPE svg PUBLIC "-//W3C//DTD SVG 1.1//EN" "http://www.w3.org/Graphics/SVG/1.1/DTD/svg11.dtd">
<svg version="1.1" id="Layer_1" xmlns="http://www.w3.org/2000/svg" xmlns:xlink="http://www.w3.org/1999/xlink" x="0px" y="0px"
	 viewBox="0 0 375 507" enable-background="new 0 0 375 507" xml:space="preserve">
<rect y="0" fill="#F28EA8" width="375" height="507"/>
<polygon fill="#FFFFFF" points="110.8,7 100.5,7 11.8,144.1 11.7,157 103.8,14.7 103.8,150.8 45.9,150.8 45.9,157.8 103.8,157.8 
	103.8,194.8 110.8,194.8 "/>
<g>
	<polygon fill="#FFFFFF" points="140,7 140,194.8 147,194.8 147,101.2 147,7 	"/>
	<polygon fill="#FFFFFF" points="156.7,100.9 243.6,7 234.1,7 147.2,100.8 147.3,100.9 147,101.2 240.6,194.7 250.5,194.8 	"/>
</g>
<g>
	<path fill="#FFFFFF" d="M260.2,193.9V7c6.8-0.2,13.6-0.3,20.6-0.4c6.9-0.1,13.8,0,20.6,0.4c7.8,0.4,13.9,1,18.2,1.9
		c4.3,0.9,8.1,2.1,11.5,3.7c7.7,3.7,13.7,9.3,18,16.6c4.4,7.3,6.5,15.2,6.5,23.8c0,4.6-0.6,8.8-1.7,12.5c-1.2,3.7-2.5,7-4.1,9.7
		c-1.6,2.8-3.3,5-5.2,6.8c-1.9,1.8-3.4,3.2-4.7,4.3c-2.3,1.8-4.6,3.2-6.8,4.1c-2.2,1-4.6,2-7.1,3.1c6.8,2.7,11.9,4.9,15.5,6.8
		c3.6,1.9,6.6,3.9,9.1,6c3.7,3,6.7,6.3,8.8,9.7c2.1,3.5,3.7,6.9,4.8,10.4c1.1,3.5,1.8,6.7,2.1,9.6c0.4,2.9,0.5,5.3,0.5,7.1
		c0,7.3-1.4,14.3-4.1,21c-2.8,6.7-6.6,12.3-11.6,17c-5,4.6-10.4,7.7-16.3,9.2c-5.9,1.5-12.3,2.7-19.2,3.6H260.2z M267.6,187.3h44.7
		c0.9-0.2,3.3-0.4,7.3-0.8c4-0.4,7.8-1.2,11.3-2.4c8.9-3.2,15.8-8.5,20.8-16c5-7.5,7.5-16,7.5-25.6c0-1.6-0.2-4-0.5-7.1
		c-0.4-3.1-1.4-6.4-3.2-10c-3-6.2-7.5-11.6-13.4-16c-5.9-4.4-12.3-7.6-19-9.3c-3.7-0.9-7.3-1.4-10.8-1.5c-3.5-0.1-5.7-0.1-6.8-0.1
		h-17.3c-3.4,0.2-6.8,0.2-10.1,0.1c-3.4-0.1-6.8-0.1-10.4-0.1V187.3z M267.9,91.7h28.5c0.5,0,1.7,0,3.5,0c2,0,4.2,0,6.7-0.1
		c2.5-0.1,5.1-0.4,7.7-0.8c2.7-0.4,5.2-1.1,7.7-2c7.3-2.7,13.4-7.3,18.5-14c5.1-6.7,7.6-13.9,7.6-21.8c0-5.9-1.5-11.6-4.5-17.1
		c-3-5.5-6.8-10.1-11.4-13.6c-3.2-2.5-6.9-4.4-11-5.7c-4.2-1.3-10.3-2-18.5-2c-5.9,0-11.7,0-17.4,0.1c-5.8,0.1-11.5,0.1-17.2,0.1
		V91.7z"/>
</g>
<g>
	<path fill="#FFFFFF" d="M111.2,203.3v143.6h19.1v6.6h-18.9v35.1H104v-34.8H4.4v-6.6l96.2-143.9H111.2z M12.6,346.9H104V210.1
		L12.6,346.9z"/>
	<path fill="#FFFFFF" d="M172.8,282.2c-2.2-1.1-4.3-2.3-6.2-3.7c-1.2-0.9-2.7-2.3-4.5-4.4c-1.8-2-3.5-4.5-5.2-7.4
		c-1.6-2.9-3.1-6.2-4.3-10c-1.2-3.8-1.8-8.1-1.8-12.8c0-3,0.3-6,1-9c0.7-3,1.6-5.8,2.9-8.4c3.6-8.1,9-14.4,16.1-19
		c7.1-4.6,14.9-6.9,23.4-6.9c1.9,0,4.4,0.2,7.5,0.7c3.1,0.4,6.7,1.6,10.9,3.6c1.9,0.9,4.3,2.2,7.1,4.1c2.9,1.8,5.6,4.3,8.3,7.4
		c2.7,3.1,5,6.9,6.9,11.5c1.9,4.6,2.9,9.9,2.9,16.1c0,6.3-1.3,12.4-3.8,18.2c-2.5,5.8-6.1,10.7-10.6,14.8c-1.4,1.2-3,2.5-4.8,3.7
		c-1.8,1.2-4.4,2.8-7.7,4.8c1.6,0.5,3.1,1.1,4.5,1.7c1.5,0.6,2.9,1.3,4.3,2c2.2,1.1,4.9,2.6,8,4.8c3.1,2.1,6.4,5.7,9.8,10.8
		c1.7,2.5,3.8,6.5,6.3,12.1c2.5,5.6,3.8,12.6,3.8,20.9c0,1.9-0.2,4.7-0.5,8.3c-0.3,3.6-1.5,7.7-3.4,12.3
		c-4.5,10.6-11.2,18.8-20.1,24.7c-8.9,5.9-18.8,8.8-29.6,8.8c-3.5,0-6.9-0.4-10.5-1.1c-3.5-0.7-6.9-1.8-10.2-3.2
		c-10.3-4.2-18.5-10.9-24.3-19.9c-5.9-9.1-8.8-19.4-8.8-31c0-7.7,1.6-15.2,4.7-22.4c3.1-7.2,7.4-13.2,12.9-18
		c1.9-1.9,4.3-3.8,7.2-5.5c2.9-1.8,6.9-3.9,11.9-6.3C176.4,284,175,283.3,172.8,282.2z M149.8,354c2.4,6.1,5.8,11.4,10.1,15.9
		c4.3,4.6,9.4,8.2,15.3,10.8c5.9,2.6,12.1,3.9,18.6,3.9c1.6,0,3.6-0.1,6.1-0.4c2.5-0.3,5.3-0.9,8.4-1.8c3.1-1,6.3-2.4,9.6-4.3
		c3.3-1.9,6.5-4.5,9.6-7.6c1-1.1,2.3-2.6,3.9-4.6c1.6-2,3-4.4,4.4-7.2c1.4-2.8,2.6-6,3.6-9.6c1-3.6,1.6-7.6,1.6-12
		c0-5.1-0.6-9.3-1.7-12.8c-1.1-3.4-2.1-6-3-7.8c-3.8-8.4-9.6-15.1-17.3-20c-7.8-4.9-16.3-7.4-25.6-7.4c-1.7,0-4.4,0.2-7.9,0.7
		c-3.5,0.4-7.4,1.6-11.5,3.6c-7.8,3.5-14.1,9.1-19.1,16.7c-5,7.6-7.7,15.8-8,24.6C146.3,341.5,147.3,347.9,149.8,354z M159.9,256.8
		c1.7,4.8,4.2,9,7.5,12.6c3.3,3.6,7.2,6.5,11.8,8.6c4.6,2.1,9.5,3.2,14.7,3.2c1.4,0,3.4-0.2,6.1-0.5s5.6-1.2,8.7-2.7
		c6.6-3,11.9-7.5,15.8-13.5c4-6,6-12.7,6-20.1c0-5.3-1-10.2-3-14.6c-2-4.4-4.7-8.3-8-11.5c-3.4-3.3-7.3-5.8-11.7-7.7
		c-4.4-1.9-9-2.8-13.9-2.8c-1,0-2.4,0.1-4,0.3c-1.6,0.2-3.5,0.5-5.6,1.1c-2.1,0.5-4.2,1.3-6.5,2.4c-2.3,1.1-4.5,2.5-6.8,4.2
		c-0.9,0.7-2,1.8-3.4,3.3c-1.4,1.5-2.7,3.3-4,5.4c-1.3,2.1-2.5,4.6-3.6,7.5c-1.1,2.9-1.8,6.1-1.9,9.4
		C157.5,246.9,158.1,252,159.9,256.8z"/>
</g>
</svg>
