<?xml version="1.0" encoding="UTF-8" standalone="no"?>
<svg
   xmlns:dc="http://purl.org/dc/elements/1.1/"
   xmlns:cc="http://creativecommons.org/ns#"
   xmlns:rdf="http://www.w3.org/1999/02/22-rdf-syntax-ns#"
   xmlns:svg="http://www.w3.org/2000/svg"
   xmlns="http://www.w3.org/2000/svg"
   version="1.1"
   id="svg38462"
   viewBox="0 0 479.99999 670.28279"
   height="670.28278"
   width="480">
  <defs
     id="defs38464">
    <clipPath
       id="clipPath35727"
       clipPathUnits="userSpaceOnUse">
      <path
         id="path35729"
         d="m 1068.497,1009.501 74.094,0 0,103.625 -74.094,0 0,-103.625 z" />
    </clipPath>
  </defs>
  <metadata
     id="metadata38467">
    <rdf:RDF>
      <cc:Work
         rdf:about="">
        <dc:format>image/svg+xml</dc:format>
        <dc:type
           rdf:resource="http://purl.org/dc/dcmitype/StillImage" />
        <dc:title></dc:title>
      </cc:Work>
    </rdf:RDF>
  </metadata>
  <rect
     width="480"
     y="0"
     x="0"
     height="670.28278"
     id="rect3355"
     style="opacity:1;fill:#231f20;fill-opacity:1;stroke:none;stroke-width:20;stroke-linejoin:miter;stroke-miterlimit:4;stroke-dasharray:none;stroke-opacity:1" />
  <g
     transform="translate(-399.31649,-29.727514)"
     id="layer1">
    <g
       transform="matrix(6.4658248,0,0,-6.4658248,404.33397,481.97834)"
       id="g35743">
      <path
         id="path35745"
         style="fill:#ffffff;fill-opacity:1;fill-rule:nonzero;stroke:none"
         d="M 0,0 18.397,27.852 18.397,0 0,0 Z m 18.397,-8.936 1.567,0 0,7.525 3.919,0 0,1.411 -3.919,0 0,29.737 -2.143,0 -18.573,-28.165 -0.024,-0.037 0,-2.946 0.024,0 19.149,0 0,-7.525 z" />
    </g>
    <g
       transform="matrix(6.4658248,0,0,-6.4658248,414.99224,281.21577)"
       id="g35747">
      <path
         id="path35749"
         style="fill:#ffffff;fill-opacity:1;fill-rule:nonzero;stroke:none"
         d="M 0,0 0,36.692 17.712,-0.003 18.221,0 l 1.323,0 0,38.847 0,0.048 -1.484,0 0,-0.048 0,-36.721 -17.546,36.721 -0.023,0.048 -0.491,0 -1.485,0 0,-0.048 L -1.485,0 0,0 Z" />
    </g>
    <g
       transform="matrix(6.4658248,0,0,-6.4658248,645.98771,536.55896)"
       id="g35751">
      <path
         id="path35753"
         style="fill:#ffffff;fill-opacity:1;fill-rule:nonzero;stroke:none"
         d="m 0,0 c -5.712,0 -10.221,4.513 -10.221,10.171 l 0,0.049 c 0,5.715 4.509,10.222 10.221,10.222 5.713,0 10.217,-4.507 10.217,-10.222 C 10.217,4.513 5.713,0 0,0 m -7.756,29.562 0,0.056 c 0,4.346 3.406,7.75 7.756,7.75 4.352,0 7.754,-3.404 7.754,-7.75 0,-4.302 -3.402,-7.709 -7.754,-7.709 -4.35,0 -7.756,3.407 -7.756,7.653 M 3.668,21.229 c 3.301,1.415 5.655,4.771 5.655,8.389 0,5.081 -4.188,9.113 -9.323,9.113 -5.135,0 -9.327,-4.244 -9.327,-9.066 l 0,-0.047 C -9.327,26 -6.97,22.644 -3.674,21.229 -8.388,19.707 -11.688,15.413 -11.793,10.22 -11.637,3.721 -6.498,-1.414 0,-1.414 c 6.497,0 11.633,5.135 11.791,11.634 -0.101,5.242 -3.46,9.542 -8.123,11.009" />
    </g>
    <g
       transform="matrix(6.4658248,0,0,-6.4658248,853.55672,90.89422)"
       id="g35755">
      <path
         id="path35757"
         style="fill:#ffffff;fill-opacity:1;fill-rule:nonzero;stroke:none"
         d="m 0,0 c 0,-2.741 -0.687,-5.43 -3.942,-7.274 -1.367,-0.74 -3.205,-0.998 -5.518,-0.998 l -7.041,0 0,16.444 6.673,0 C -6.462,8.123 -5.044,7.647 -3.942,7.013 -1.944,6.116 0,3.531 0,0 m -2.837,-10.652 c 3.205,-1.42 5.252,-4.48 5.252,-8.379 -0.053,-4.327 -2.204,-6.857 -5.145,-8.12 -1.582,-0.581 -3.526,-0.846 -5.571,-0.846 l -8.2,0 0,18.293 7.041,0 c 3.155,0 4.52,-0.051 6.623,-0.948 M -8.355,-29.42 c 2.471,0 4.515,0.317 6.202,0.894 3.238,1.404 5.34,3.889 5.98,7.54 0.008,0.042 0.012,0.086 0.02,0.127 0.193,1.198 0.172,2.671 0,3.577 -0.006,0.035 -0.012,0.075 -0.02,0.108 -0.584,2.751 -2.088,6.795 -7.769,8.419 2.313,1.164 5.517,3.167 5.517,8.546 0,2.899 -0.995,6.482 -4.57,8.381 -0.906,0.536 -2.404,1.097 -3.566,1.24 -0.183,0.022 -0.358,0.036 -0.52,0.036 l -10.998,0 0,-0.036 0,-38.832 9.724,0 z" />
    </g>
    <g
       transform="matrix(6.4658248,0,0,-6.4658248,568.688,281.21577)"
       id="g35759">
      <path
         id="path35761"
         style="fill:#ffffff;fill-opacity:1;fill-rule:nonzero;stroke:none"
         d="M 0,0 0,35.49 10.963,0 l 0,-0.001 10.928,35.379 0,-35.378 1.485,0 0,38.847 0,0.048 -1.485,0 0,-0.002 -0.407,0 L 21.472,38.847 10.963,4.049 0.455,38.847 l -0.014,0.048 -0.441,0 -1.432,0 -0.052,0 0,-0.048 L -1.484,0 0,0 Z" />
    </g>
  </g>
</svg>
